<svg width="26" height="27" viewBox="0 0 26 27" fill="none" xmlns="http://www.w3.org/2000/svg">
<path d="M23.1111 0H2.88889C2.12271 0 1.38791 0.309986 0.846136 0.861764C0.304364 1.41354 0 2.16191 0 2.94225V23.538C0 24.3183 0.304364 25.0667 0.846136 25.6184C1.38791 26.1702 2.12271 26.4802 2.88889 26.4802H23.1111C23.8773 26.4802 24.6121 26.1702 25.1539 25.6184C25.6956 25.0667 26 24.3183 26 23.538V2.94225C26 2.16191 25.6956 1.41354 25.1539 0.861764C24.6121 0.309986 23.8773 0 23.1111 0ZM23.1111 2.94225V23.538H2.88889V2.94225H23.1111ZM10.1111 20.5957L4.33333 14.7112L6.37 12.6222L10.1111 16.4324L19.63 6.73774L21.6667 8.82674" fill="black"/>
</svg>
