<svg width="500" height="500" version="1.1" xmlns="http://www.w3.org/2000/svg" desc="Created with imagetracer.js version 1.2.6" ><path fill="rgb(17,17,16)" stroke="rgb(17,17,16)" stroke-width="1" opacity="0.9568627450980393" d="M 197.5 139 L 203.5 139 L 206.5 141 L 229.5 146 L 259.5 147 L 260.5 146 L 276.5 145 L 296.5 139 L 301.5 139 Q 304.8 140.8 305 145.5 Q 302 153 295.5 157 L 284.5 162 L 269.5 164 L 261 167 Q 258.3 169.6 259 176.5 L 264 191.5 L 285 228.5 L 288 239.5 L 289 253.5 L 287 264.5 L 284 271.5 L 272.5 284 Q 263.2 291.2 246.5 291 L 236.5 289 L 229.5 286 L 217 274.5 L 211 260.5 L 210 246.5 L 214 228.5 Q 221 212.5 231 199.5 L 238 184.5 L 240 177.5 L 240 170.5 L 237.5 167 L 229.5 164 L 224.5 164 L 208.5 160 L 199 154 L 194 143.5 L 197.5 139 Z M 200 144 L 202 150 L 212 156 L 234 160 L 241 163 L 244 168 L 245 172 Q 245 181 242 188 L 219 230 L 215 244 L 216 262 L 223 275 Q 230 283 244 286 Q 263 287 273 278 Q 281 270 284 257 L 284 244 L 280 230 L 260 195 L 256 185 L 254 175 L 257 164 L 266 160 L 288 156 L 296 151 L 299 146 L 300 144 L 277 150 L 257 151 L 256 152 L 243 152 L 242 151 L 223 150 L 200 144 Z " /><path fill="rgb(17,17,16)" stroke="rgb(17,17,16)" stroke-width="1" opacity="0.9568627450980393" d="M 169.5 164 L 176.5 166 L 182.5 166 L 188 168.5 L 187 182.5 L 184.5 189 L 181 187.5 L 182 186.5 L 183 175.5 L 181.5 176 L 171 185.5 Q 161.1 197.1 155 212.5 L 151 226.5 L 150 242.5 L 151 242.5 Q 154.3 234.8 160.5 230 L 167.5 226 L 175.5 226 Q 185 230 190 238.5 Q 198.3 247.7 197 266.5 Q 193.9 277.4 185.5 283 L 179.5 286 L 167.5 287 L 160 285 Q 166.8 300.2 179 311.5 Q 177.2 315.8 175.5 313 L 171 309.5 L 158 292.5 L 151 276.5 L 147 271.5 Q 143.9 266.1 145 256.5 L 146 254.5 L 145 253.5 L 145 234.5 L 149 215.5 L 157 197.5 Q 165.4 182.9 177.5 172 L 179 171.5 L 176.5 170 L 168 169 Q 167 165.2 169.5 164 Z M 169 231 L 165 233 Q 154 241 150 257 Q 149 267 153 273 Q 158 279 167 282 L 176 282 L 187 276 Q 192 271 193 263 L 191 251 L 183 238 L 175 231 L 169 231 Z " /><path fill="rgb(17,17,16)" stroke="rgb(17,17,16)" stroke-width="1" opacity="0.9568627450980393" d="M 315.5 167 L 333 183.5 Q 344.8 197.7 351 217.5 L 354 231.5 L 354 266.5 L 339 296.5 L 323.5 314 L 321 313 Q 320 309.2 322.5 308 L 326 305.5 Q 334.6 296.6 340 284.5 L 338.5 285 Q 333.5 288 324.5 287 Q 313.4 285.1 308 277.5 Q 301.2 270.8 302 256.5 Q 305.9 238.4 318.5 229 L 324.5 226 L 332.5 226 L 346 237.5 L 349.5 243 L 350 238.5 L 349 237.5 L 348 224.5 L 344 211.5 Q 336.8 194.5 326 182 Q 323.3 183.1 324 180.5 L 313 170.5 L 315.5 167 Z M 325 231 L 322 233 Q 311 241 307 257 Q 306 268 311 274 Q 315 280 325 282 Q 338 284 343 277 L 349 267 Q 351 255 347 249 L 338 235 L 332 231 L 325 231 Z " /><path fill="rgb(17,17,16)" stroke="rgb(17,17,16)" stroke-width="1" opacity="0.9568627450980393" d="M 299 301 Q 302.8 300 304 302.5 L 308 314.5 L 308 323.5 Q 305.9 333.9 298.5 339 Q 290.8 346.3 275.5 346 Q 274.2 343.8 269.5 345 L 260.5 341 L 253 334.5 L 249 328.5 L 249 325.5 L 251.5 324 L 261.5 336 Q 268.7 341.3 281.5 341 L 293.5 337 L 300 330.5 Q 304.8 325.3 303 313.5 L 299 304.5 L 299 301 Z " /><path fill="rgb(0,0,0)" stroke="rgb(0,0,0)" stroke-width="1" opacity="0" d="M 0 0 L 500 0 L 500 500 L 0 500 L 0 0 Z M 198 138 L 194 141 Q 193 147 195 151 L 208 161 Q 212 160 214 163 L 219 163 L 223 165 L 231 165 L 236 167 L 239 172 Q 239 183 235 190 L 218 218 L 210 239 L 210 262 L 218 278 L 231 288 L 245 292 L 255 292 Q 257 289 264 290 L 275 284 L 284 274 L 290 257 L 290 245 L 286 229 L 265 192 L 260 177 L 261 170 L 266 166 L 286 163 L 298 157 Q 303 153 306 146 L 305 141 L 302 138 L 296 138 L 282 143 L 277 143 L 271 145 L 253 145 L 252 146 L 230 145 L 225 143 L 219 143 L 211 141 L 204 138 L 198 138 Z M 167 164 L 167 169 L 169 170 L 176 172 Q 163 184 154 201 L 147 219 L 144 233 L 144 253 L 145 254 L 144 258 L 145 270 Q 152 278 155 290 L 166 306 L 177 315 L 180 313 L 180 310 Q 169 301 163 288 L 177 288 Q 178 285 183 286 L 188 282 Q 190 283 189 280 L 191 280 L 191 278 L 193 278 L 198 268 L 198 254 L 194 243 L 189 236 Q 184 229 176 225 L 167 225 L 158 231 L 153 238 L 151 239 L 153 222 L 157 213 L 157 210 L 167 193 L 176 181 L 182 177 L 180 180 L 181 181 L 180 186 L 181 189 Q 180 192 186 190 L 187 189 L 188 178 L 189 177 L 189 168 L 180 164 L 167 164 Z M 316 166 L 314 167 Q 311 168 312 172 L 315 173 Q 328 184 337 200 L 343 212 L 343 215 L 345 217 L 345 221 L 347 224 Q 346 228 348 230 L 348 238 L 347 237 Q 341 228 330 224 L 324 225 L 315 231 L 307 241 L 304 247 L 304 250 L 302 252 L 302 269 L 306 277 Q 310 283 318 286 Q 322 285 324 288 L 337 289 L 328 301 Q 329 303 326 302 L 320 310 L 320 313 L 324 315 L 326 314 Q 336 304 344 291 L 349 278 L 352 275 L 355 268 L 355 231 Q 352 227 353 221 L 346 202 L 336 186 L 331 181 Q 332 178 329 179 L 325 173 Q 322 174 323 171 L 321 171 L 321 169 L 316 166 Z M 298 300 L 298 306 L 302 313 L 302 326 L 300 328 L 300 330 Q 297 329 298 332 L 292 337 L 281 340 L 270 339 L 258 332 L 254 324 L 252 323 L 248 324 Q 247 331 251 334 L 264 344 L 277 347 L 288 346 L 302 338 L 308 328 L 309 323 L 308 310 L 304 302 L 304 300 L 298 300 Z " /><path fill="rgb(0,0,0)" stroke="rgb(0,0,0)" stroke-width="1" opacity="0" d="M 203.5 147 L 208.5 147 L 229.5 152 L 259.5 153 L 260.5 152 L 269.5 152 L 270.5 151 L 281.5 150 L 286.5 148 L 293.5 148 L 293 149.5 L 290.5 153 L 285 154 Q 286.4 158 279.5 156 L 274.5 158 L 261.5 160 L 255 165.5 L 253 170.5 L 253 177.5 L 257 190.5 L 274 219.5 L 280 232.5 L 283 242.5 L 283 257.5 L 277 271.5 L 270.5 278 L 262.5 283 L 255.5 285 L 243.5 285 Q 229.6 281.4 222 271.5 L 217 261.5 L 216 244.5 L 222 224.5 Q 234.5 208 243 187.5 Q 246.8 180.3 245 167.5 L 240.5 162 L 232.5 158 L 223.5 158 L 220.5 156 L 208.5 153 L 203.5 147 Z " /><path fill="rgb(0,0,0)" stroke="rgb(0,0,0)" stroke-width="1" opacity="0" d="M 168.5 232 L 174.5 232 L 184 240.5 L 190 250.5 L 192 257.5 L 192 263.5 Q 189.4 264.9 190 269.5 L 183.5 277 L 174.5 281 L 166.5 281 L 157 276 L 157 274 Q 154.3 275.1 155 272.5 Q 149.7 267.8 151 256.5 L 155 245 Q 158 246.3 157 242.5 L 159 239 L 161 239 L 161 237 L 163 237 Q 161.9 234.3 164.5 235 L 168.5 232 Z " /><path fill="rgb(0,0,0)" stroke="rgb(0,0,0)" stroke-width="1" opacity="0" d="M 325.5 232 L 331.5 232 L 340 239.5 L 347 250.5 L 348 266.5 L 343 276 L 333.5 281 L 323.5 281 L 314 276 L 308 265.5 L 308 255.5 L 316 239 Q 318.7 240.1 318 237.5 L 325.5 232 Z " /><path fill="rgb(203,203,203)" stroke="rgb(203,203,203)" stroke-width="1" opacity="0.23137254901960785" d="M 197.5 138 L 203.5 138 L 210.5 141 L 218.5 143 L 224.5 143 L 229.5 145 L 251.5 146 L 252.5 145 L 269.5 145 L 269.5 146 L 238.5 147 L 237.5 146 L 222.5 145 L 206.5 141 L 203.5 139 L 197.5 139 L 194.5 143 L 194 140.5 L 197.5 138 Z " /><path fill="rgb(203,203,203)" stroke="rgb(203,203,203)" stroke-width="1" opacity="0.23137254901960785" d="M 295.5 138 Q 302.8 136.8 305 140.5 L 306 145.5 Q 303.4 152.9 297.5 157 L 293.5 159 L 294.5 157 L 303 149.5 L 305 143.5 L 301.5 139 L 296.5 139 L 282.5 143 L 282.5 142 L 295.5 138 Z " /><path fill="rgb(203,203,203)" stroke="rgb(203,203,203)" stroke-width="1" opacity="0.23137254901960785" d="M 276.5 143 L 281 143.5 L 271.5 145 L 271.5 144 L 276.5 143 Z " /><path fill="rgb(203,203,203)" stroke="rgb(203,203,203)" stroke-width="1" opacity="0.23137254901960785" d="M 199.5 144 L 222.5 150 L 241.5 151 L 242.5 152 L 255.5 152 L 256.5 151 L 275.5 150 L 275.5 151 L 260.5 152 L 259.5 153 L 239.5 153 L 238.5 152 L 229.5 152 L 208.5 147 L 203.5 147 L 208.5 153 L 213.5 155 L 217.5 155 L 223.5 158 L 232.5 158 L 243 164.5 Q 245.6 165.9 245 170.5 L 244 170.5 L 244 167.5 L 240.5 163 L 233.5 160 L 211.5 156 L 202 149.5 L 199.5 144 Z " /><path fill="rgb(203,203,203)" stroke="rgb(203,203,203)" stroke-width="1" opacity="0.23137254901960785" d="M 296.5 144 L 300 144.5 L 295.5 151 L 287.5 156 L 265.5 160 L 257 164 L 254 174.5 L 257 186.5 L 255 185.5 Q 255.7 179.8 253 177.5 L 253 170.5 L 255 165.5 L 258.5 162 L 269.5 158 L 285 156 Q 283.8 153 287.5 154 L 293 150.5 L 294 148.5 L 286.5 148 Q 283.6 150.6 277.5 150 L 277.5 149 L 285.5 148 L 296.5 144 Z " /><path fill="rgb(203,203,203)" stroke="rgb(203,203,203)" stroke-width="1" opacity="0.23137254901960785" d="M 194.5 146 L 199 154 L 208.5 160 L 230 164.5 L 222.5 165 L 218.5 163 L 213.5 163 Q 212.1 160.4 207.5 161 L 195 150.5 L 194.5 146 Z " /><path fill="rgb(203,203,203)" stroke="rgb(203,203,203)" stroke-width="1" opacity="0.23137254901960785" d="M 291.5 159 L 290.5 161 L 276.5 165 L 265.5 166 L 261 169.5 L 260 176.5 L 265 191.5 L 282 219.5 L 286 230.5 L 285 230.5 L 279 216.5 L 264 191.5 L 260 180.5 L 259 171.5 L 261 167 L 269.5 164 L 284.5 162 L 291.5 159 Z " /><path fill="rgb(203,203,203)" stroke="rgb(203,203,203)" stroke-width="1" opacity="0.23137254901960785" d="M 167 164 L 169 164.5 L 168 169 L 171 169.5 L 168.5 170 Q 165.8 168.6 167 164 Z " /><path fill="rgb(203,203,203)" stroke="rgb(203,203,203)" stroke-width="1" opacity="0.23137254901960785" d="M 171.5 164 L 179.5 164 L 189 167.5 L 189 176.5 L 188 177.5 L 187 188.5 L 185.5 190 Q 180.1 191.9 181 188.5 L 180 185.5 L 181 180.5 Q 179.3 177.3 177.5 181 Q 175.3 180.3 176 182.5 Q 164.3 193.3 157.5 209 L 157 207.5 Q 165.8 188.8 180.5 176 L 182.5 175 L 183 177.5 L 181 187.5 L 184.5 189 L 187 182.5 L 188 168.5 L 182.5 166 L 171.5 165 L 171.5 164 Z " /><path fill="rgb(203,203,203)" stroke="rgb(203,203,203)" stroke-width="1" opacity="0.23137254901960785" d="M 231.5 165 L 239 168.5 L 240 177.5 L 231 199.5 Q 221.1 212.1 214.5 228 L 214 225.5 L 235 189.5 Q 239 182.5 239 171.5 L 235.5 167 L 231.5 166 L 231.5 165 Z " /><path fill="rgb(203,203,203)" stroke="rgb(203,203,203)" stroke-width="1" opacity="0.23137254901960785" d="M 315.5 166 L 321 169 L 321 171 L 323 171 Q 321.9 173.7 324.5 173 L 329 179 Q 331.7 177.9 331 180.5 L 336 185.5 L 346 201.5 L 351 216.5 L 350 216.5 Q 340.3 185.7 317.5 168 L 315.5 167 L 313 170.5 L 324 180.5 L 326 183.5 Q 338.9 196.1 345 215.5 L 343 214.5 L 343 211.5 L 332 191.5 L 314.5 173 L 312 171.5 Q 311.3 167.8 313.5 167 L 315.5 166 Z " /><path fill="rgb(203,203,203)" stroke="rgb(203,203,203)" stroke-width="1" opacity="0.23137254901960785" d="M 173.5 170 L 179 171.5 L 171 178.5 Q 156.6 193.1 149.5 215 L 149 212.5 Q 158.1 187.6 176 171.5 Q 172.7 171.6 173.5 170 Z " /><path fill="rgb(203,203,203)" stroke="rgb(203,203,203)" stroke-width="1" opacity="0.23137254901960785" d="M 244.5 176 L 245 181.5 L 237 200.5 L 222.5 224 L 223 222.5 L 242 187.5 L 244.5 176 Z " /><path fill="rgb(203,203,203)" stroke="rgb(203,203,203)" stroke-width="1" opacity="0.23137254901960785" d="M 257.5 188 L 261 195.5 L 259 194.5 L 257 190.5 L 257.5 188 Z " /><path fill="rgb(203,203,203)" stroke="rgb(203,203,203)" stroke-width="1" opacity="0.23137254901960785" d="M 261.5 197 L 280 229.5 L 283 241.5 L 282 241.5 L 278 227.5 L 263 202.5 L 261.5 197 Z " /><path fill="rgb(203,203,203)" stroke="rgb(203,203,203)" stroke-width="1" opacity="0.23137254901960785" d="M 156.5 210 L 157 212.5 L 153.5 221 L 153 218.5 L 156.5 210 Z " /><path fill="rgb(203,203,203)" stroke="rgb(203,203,203)" stroke-width="1" opacity="0.23137254901960785" d="M 148.5 216 L 149 218.5 L 145 234.5 L 144.5 253 L 144 232.5 L 148.5 216 Z " /><path fill="rgb(203,203,203)" stroke="rgb(203,203,203)" stroke-width="1" opacity="0.23137254901960785" d="M 345.5 217 L 347 222.5 L 346 222.5 L 345.5 217 Z " /><path fill="rgb(203,203,203)" stroke="rgb(203,203,203)" stroke-width="1" opacity="0.23137254901960785" d="M 351.5 218 Q 353.8 219.8 353 224.5 L 352 224.5 L 351.5 218 Z " /><path fill="rgb(203,203,203)" stroke="rgb(203,203,203)" stroke-width="1" opacity="0.23137254901960785" d="M 152.5 222 L 153 225.5 L 152 226.5 L 151 238.5 L 153 237.5 L 157.5 231 L 166.5 225 L 175.5 225 Q 183.9 228.6 189 235.5 Q 194.5 240.5 196 249.5 L 195 249.5 Q 190.7 235.3 179.5 228 Q 175.8 224.7 167.5 226 Q 159.8 229.3 155 235.5 L 150.5 243 L 150 233.5 L 152.5 222 Z " /><path fill="rgb(203,203,203)" stroke="rgb(203,203,203)" stroke-width="1" opacity="0.23137254901960785" d="M 328.5 224 Q 340.7 227.3 347 236.5 L 347.5 238 L 348 229.5 L 347 224.5 L 348 224.5 L 350 242.5 L 348 241.5 Q 344.7 233.3 337.5 229 Q 334 224.5 324.5 226 Q 315.8 229.3 311 236.5 L 304.5 249 L 304 246.5 L 314.5 231 Q 319.5 225.5 328.5 224 Z " /><path fill="rgb(203,203,203)" stroke="rgb(203,203,203)" stroke-width="1" opacity="0.23137254901960785" d="M 221.5 225 L 222 226.5 L 217 238.5 L 216 255.5 L 219 266.5 L 228.5 278 L 243.5 285 L 255.5 285 L 266.5 281 L 277 271.5 L 281 264.5 L 282.5 258 L 283 261.5 Q 279.7 271.7 272.5 278 Q 263.4 287.4 243.5 286 Q 230.5 283 223 274.5 L 216 261.5 L 215 243.5 L 217 234.5 L 221.5 225 Z " /><path fill="rgb(203,203,203)" stroke="rgb(203,203,203)" stroke-width="1" opacity="0.23137254901960785" d="M 353.5 226 L 355 230.5 L 355 267.5 L 352 274.5 L 349 277.5 L 344 290.5 Q 336.4 303.9 325.5 314 L 323.5 315 L 320 312.5 L 320 309.5 L 326 302 Q 328.7 303.1 328 300.5 L 337 288.5 L 323.5 288 L 321 286.5 L 323.5 286 L 324.5 287 L 332.5 287 L 339.5 284 L 340 285.5 Q 333.3 298.3 323.5 308 L 321 309.5 Q 319.5 313.9 322.5 313 L 323.5 314 L 333 304.5 L 342 291.5 L 354 266.5 L 354 231.5 Q 351.6 230.2 353.5 226 Z " /><path fill="rgb(203,203,203)" stroke="rgb(203,203,203)" stroke-width="1" opacity="0.23137254901960785" d="M 213.5 229 L 214 230.5 Q 210.6 236.6 210.5 246 L 210 238.5 L 213.5 229 Z " /><path fill="rgb(203,203,203)" stroke="rgb(203,203,203)" stroke-width="1" opacity="0.23137254901960785" d="M 168.5 231 L 174.5 231 L 183 237.5 L 191 250.5 L 192 256.5 L 191 256.5 Q 188.3 241.2 177.5 234 Q 175.2 230.8 168.5 232 L 163 235 L 163 237 L 161 237 L 161 239 Q 158.3 237.9 159 240.5 Q 156.3 241.6 157 245 Q 154 243.8 155 247.5 Q 149.8 252.8 151 264.5 L 155 274 L 157 274 Q 155.9 276.7 158.5 276 L 166.5 281 L 174.5 281 Q 183.6 279.1 188 272.5 L 191.5 264 L 192 266.5 L 186.5 276 L 175.5 282 L 166.5 282 Q 157.8 279.2 153 272.5 Q 148.7 267.4 150 256.5 Q 153.6 241.1 164.5 233 L 168.5 231 Z " /><path fill="rgb(203,203,203)" stroke="rgb(203,203,203)" stroke-width="1" opacity="0.23137254901960785" d="M 324.5 231 L 331.5 231 L 338 235 L 347 249.5 L 345 248.5 Q 342.1 238.9 334.5 234 Q 332.2 230.8 325.5 232 L 318 237.5 L 316 240.5 L 312 245.5 L 308.5 255 L 308 252.5 Q 312 240 321.5 233 L 324.5 231 Z " /><path fill="rgb(203,203,203)" stroke="rgb(203,203,203)" stroke-width="1" opacity="0.23137254901960785" d="M 286.5 232 Q 288.8 233.8 288 238.5 L 287 238.5 L 286.5 232 Z " /><path fill="rgb(203,203,203)" stroke="rgb(203,203,203)" stroke-width="1" opacity="0.23137254901960785" d="M 288.5 240 Q 291.5 246 290 256.5 L 288.5 260 L 288 254.5 Q 290.8 252.8 289 246.5 Q 286.4 244.9 288.5 240 Z " /><path fill="rgb(203,203,203)" stroke="rgb(203,203,203)" stroke-width="1" opacity="0.23137254901960785" d="M 283.5 243 L 284 256.5 L 283 256.5 L 283.5 243 Z " /><path fill="rgb(203,203,203)" stroke="rgb(203,203,203)" stroke-width="1" opacity="0.23137254901960785" d="M 303.5 250 L 304 251.5 L 302.5 256 L 302 251.5 L 303.5 250 Z " /><path fill="rgb(203,203,203)" stroke="rgb(203,203,203)" stroke-width="1" opacity="0.23137254901960785" d="M 196.5 251 L 198 253.5 L 198 267.5 L 193 278 L 191 278 L 191 280 L 189 280 Q 190.1 282.7 187.5 282 L 182.5 286 L 180.5 286 L 180.5 285 Q 189.1 282.6 193 275.5 Q 198.8 268.8 197 254.5 L 196.5 251 Z " /><path fill="rgb(203,203,203)" stroke="rgb(203,203,203)" stroke-width="1" opacity="0.23137254901960785" d="M 347.5 251 Q 350.8 256.2 349 266.5 L 342.5 277 Q 337.6 283.6 324.5 282 L 324.5 281 L 333.5 281 L 343 276 L 348 266.5 L 348 254.5 L 347.5 251 Z " /><path fill="rgb(203,203,203)" stroke="rgb(203,203,203)" stroke-width="1" opacity="0.23137254901960785" d="M 210.5 254 Q 212.2 275.3 226.5 284 Q 235.8 291.2 252.5 291 L 262.5 289 L 269.5 286 L 282 274.5 L 287.5 261 L 288 264.5 Q 284 277 274.5 284 L 263.5 290 Q 257.4 289.4 254.5 292 L 244.5 292 L 230.5 288 L 218 277.5 L 210 261.5 L 210.5 254 Z " /><path fill="rgb(203,203,203)" stroke="rgb(203,203,203)" stroke-width="1" opacity="0.23137254901960785" d="M 307.5 256 L 308 264.5 L 307 264.5 L 307.5 256 Z " /><path fill="rgb(203,203,203)" stroke="rgb(203,203,203)" stroke-width="1" opacity="0.23137254901960785" d="M 144.5 257 L 145 264.5 L 144 264.5 L 144.5 257 Z " /><path fill="rgb(203,203,203)" stroke="rgb(203,203,203)" stroke-width="1" opacity="0.23137254901960785" d="M 192.5 259 L 193 262.5 L 192 262.5 L 192.5 259 Z " /><path fill="rgb(203,203,203)" stroke="rgb(203,203,203)" stroke-width="1" opacity="0.23137254901960785" d="M 302.5 265 Q 304.9 276.1 312.5 282 L 320 285.5 L 317.5 286 Q 310 283 306 276.5 L 302 268.5 L 302.5 265 Z " /><path fill="rgb(203,203,203)" stroke="rgb(203,203,203)" stroke-width="1" opacity="0.23137254901960785" d="M 145.5 266 L 147 271.5 L 151 276.5 L 158 292.5 L 174.5 313 L 176.5 314 L 179 310.5 Q 166.5 300 160 285 L 167.5 287 L 174.5 287 L 178.5 286 L 178.5 287 L 176.5 288 L 163 288 Q 168.9 300.8 180 309.5 L 180 312.5 L 176.5 315 L 166 305.5 L 155 289.5 Q 152 277.5 145 269.5 L 145.5 266 Z " /><path fill="rgb(203,203,203)" stroke="rgb(203,203,203)" stroke-width="1" opacity="0.23137254901960785" d="M 308.5 266 L 314 276 L 323 280.5 L 320.5 281 L 311 273.5 Q 306.8 270.9 308.5 266 Z " /><path fill="rgb(203,203,203)" stroke="rgb(203,203,203)" stroke-width="1" opacity="0.23137254901960785" d="M 298 300 L 303.5 300 L 304 301.5 L 308 309.5 L 308 313.5 L 307 313.5 L 307 309.5 L 302.5 301 Q 297.3 299.3 299 304.5 L 302 311.5 L 301 311.5 L 298 305.5 L 298 300 Z " /><path fill="rgb(203,203,203)" stroke="rgb(203,203,203)" stroke-width="1" opacity="0.23137254901960785" d="M 302.5 313 L 303 324.5 L 302 324.5 L 302.5 313 Z " /><path fill="rgb(203,203,203)" stroke="rgb(203,203,203)" stroke-width="1" opacity="0.23137254901960785" d="M 308.5 315 L 309 322.5 L 308 322.5 L 308.5 315 Z " /><path fill="rgb(203,203,203)" stroke="rgb(203,203,203)" stroke-width="1" opacity="0.23137254901960785" d="M 250.5 323 L 254 324 L 258 332 L 269 338.5 L 267.5 339 Q 260.1 336.4 256 330.5 L 251.5 324 L 249 325.5 L 249 328.5 L 257.5 339 Q 263.8 344.7 275 345.5 L 269.5 346 Q 257.7 342.3 251 333.5 Q 246.7 331 248 324 L 250.5 323 Z " /><path fill="rgb(203,203,203)" stroke="rgb(203,203,203)" stroke-width="1" opacity="0.23137254901960785" d="M 307.5 324 L 308 327.5 L 302 338 L 292.5 344 L 287.5 346 L 282.5 346 L 282.5 345 L 286.5 345 L 294.5 342 L 304 333.5 L 307.5 324 Z " /><path fill="rgb(203,203,203)" stroke="rgb(203,203,203)" stroke-width="1" opacity="0.23137254901960785" d="M 301.5 326 L 302 327.5 L 300 328.5 L 301.5 326 Z " /><path fill="rgb(203,203,203)" stroke="rgb(203,203,203)" stroke-width="1" opacity="0.23137254901960785" d="M 298 330 L 300 330.5 Q 293.2 341.7 274.5 341 L 270 339.5 L 274.5 339 Q 275.7 341.3 280.5 340 L 291.5 337 L 298 331.5 L 298 330 Z " /><path fill="rgb(203,203,203)" stroke="rgb(203,203,203)" stroke-width="1" opacity="0.23137254901960785" d="M 276.5 346 L 280 346.5 L 276.5 347 L 276.5 346 Z " /></svg>