<svg width="22" height="22" viewBox="0 0 22 22" fill="none" xmlns="http://www.w3.org/2000/svg">
<path d="M3.59961 19.9203L5.12357 18.7012L5.13478 18.6926C5.45249 18.4384 5.61281 18.3101 5.79168 18.2188C5.95216 18.1368 6.12328 18.0771 6.2998 18.0408C6.49877 18 6.70603 18 7.12207 18H15.8031C16.921 18 17.4806 18 17.908 17.7822C18.2843 17.5905 18.5905 17.2842 18.7822 16.9079C19 16.4805 19 15.9215 19 14.8036V7.19691C19 6.07899 19 5.5192 18.7822 5.0918C18.5905 4.71547 18.2837 4.40973 17.9074 4.21799C17.4796 4 16.9203 4 15.8002 4H4.2002C3.08009 4 2.51962 4 2.0918 4.21799C1.71547 4.40973 1.40973 4.71547 1.21799 5.0918C1 5.51962 1 6.08009 1 7.2002V18.6712C1 19.7369 1 20.2696 1.21846 20.5433C1.40845 20.7813 1.69644 20.9198 2.00098 20.9195C2.35115 20.9191 2.76744 20.5861 3.59961 19.9203Z" stroke="black" stroke-width="2" stroke-linecap="round" stroke-linejoin="round"/>
<path d="M21.375 3.98438C21.375 6.71875 17.3207 8.93203 17.148 9.02344C17.1025 9.04792 17.0517 9.06073 17 9.06073C16.9483 9.06073 16.8975 9.04792 16.852 9.02344C16.6793 8.93203 12.625 6.71875 12.625 3.98438C12.6257 3.34228 12.8811 2.72668 13.3352 2.27265C13.7892 1.81862 14.4048 1.56322 15.0469 1.5625C15.8535 1.5625 16.5598 1.90938 17 2.4957C17.4402 1.90938 18.1465 1.5625 18.9531 1.5625C19.5952 1.56322 20.2108 1.81862 20.6648 2.27265C21.1189 2.72668 21.3743 3.34228 21.375 3.98438Z" fill="#FB0000"/>
</svg>
